# xmcd
#
# Track frame offsets: 
#        150
#        14914
#        28450
#        41990
#        55555
#        68842
#        84873
#        99036
#        109975
#        121423
#        135136
#        150214
#        164799
#        179877
#        196512
#        208538
#        222153
#        238955
#        264541
#        277617
#
# Disc length: 3901 seconds
#
# Revision: 0
# Processed by: cddbd v1.5.2PL0 Copyright (c) Steve Scherf et al.
# Submitted via: ExactAudioCopy v0.99pb5
#
DISCID=170f3b14
DTITLE=Various Artist - Forever In The Blues Again
DYEAR=1900
DGENRE=Blues
TTITLE0=Sunbonnet Blue - Billie Holiday
TTITLE1=Jack Armstrong Blues - Louis Armstrong
TTITLE2=Baby Won't You Please Come Home - Bessie Smith
TTITLE3=Eleanor Rigby - Ray Charles
TTITLE4=Chewin' Mama Blues - Dinah Washington
TTITLE5=Blues In L.A. - Cecil Gant
TTITLE6=Rain Down Rain - Big Maybelle
TTITLE7=I've Got A Right To Sing The Blues - Ethel Waters
TTITLE8=Trouble In Mind - Rosetta Tharpe
TTITLE9=Stugglin' Woman's Blues - Clara Smith
TTITLE10=Rolling Log Blues - Lottie Kimbrough
TTITLE11=Lonesome Day Blues - Ruby Glaze
TTITLE12=Alabama Train - Louisiana Red
TTITLE13=Georgia On My Mind - Ray Charles
TTITLE14=Stormy Night Blues - Leroy Carr
TTITLE15=Matchbox Blues - Blind Lemon Jefferson
TTITLE16=Dust My Broom - Etta James
TTITLE17=Little Red Rooster - Big Mama Thornton
TTITLE18=Fogyisim - Ida Cox
TTITLE19=Freight Train Blues - Trixie Smith
EXTD=
EXTT0=
EXTT1=
EXTT2=
EXTT3=
EXTT4=
EXTT5=
EXTT6=
EXTT7=
EXTT8=
EXTT9=
EXTT10=
EXTT11=
EXTT12=
EXTT13=
EXTT14=
EXTT15=
EXTT16=
EXTT17=
EXTT18=
EXTT19=
PLAYORDER=
